<?xml version="1.0" standalone="no"?>
<!DOCTYPE svg PUBLIC "-//W3C//DTD SVG 20010904//EN"
 "http://www.w3.org/TR/2001/REC-SVG-20010904/DTD/svg10.dtd">
<svg version="1.0" xmlns="http://www.w3.org/2000/svg"
 width="563.000000pt" height="553.000000pt" viewBox="0 0 563.000000 553.000000"
 preserveAspectRatio="xMidYMid meet">

<g transform="translate(0.000000,553.000000) scale(0.100000,-0.100000)"
fill="#000000" stroke="none">
<path d="M0 2765 l0 -2765 2815 0 2815 0 0 2765 0 2765 -2815 0 -2815 0 0
-2765z m330 2492 c0 -2 -19 -21 -42 -42 l-43 -40 40 43 c36 39 45 47 45 39z
m5050 -32 c19 -19 32 -35 29 -35 -3 0 -20 16 -39 35 -19 19 -32 35 -29 35 3 0
20 -16 39 -35z m-4110 -1729 c0 -2 -8 -10 -17 -17 -16 -13 -17 -12 -4 4 13 16
21 21 21 13z m620 -161 c124 -63 191 -174 194 -320 2 -134 -35 -216 -129 -287
-64 -48 -170 -83 -230 -75 -100 14 -207 92 -252 185 -25 52 -28 67 -28 167 0
126 15 172 81 244 102 113 244 147 364 86z m2275 11 c142 -67 216 -181 217
-332 0 -176 -82 -300 -231 -349 -164 -54 -367 72 -406 255 -14 63 -7 174 14
231 64 170 260 264 406 195z m552 -273 c-3 -10 -5 -2 -5 17 0 19 2 27 5 18 2
-10 2 -26 0 -35z m0 -150 c-3 -10 -5 -4 -5 12 0 17 2 24 5 18 2 -7 2 -21 0
-30z m-3700 -25 c-3 -8 -6 -5 -6 6 -1 11 2 17 5 13 3 -3 4 -12 1 -19z m-216
-159 l-9 -44 -1 41 c-1 22 2 44 6 47 12 12 13 1 4 -44z m2790 -236 c13 -16 12
-17 -3 -4 -17 13 -22 21 -14 21 2 0 10 -8 17 -17z m-1361 -7 c0 -2 -8 -10 -17
-17 -16 -13 -17 -12 -4 4 13 16 21 21 21 13z m-1453 -78 c-3 -8 -6 -5 -6 6 -1
11 2 17 5 13 3 -3 4 -12 1 -19z m2011 -795 c-10 -2 -26 -2 -35 0 -10 3 -2 5
17 5 19 0 27 -2 18 -5z m245 0 c-7 -2 -19 -2 -25 0 -7 3 -2 5 12 5 14 0 19 -2
13 -5z m-2778 -1313 c10 -11 16 -20 13 -20 -3 0 -13 9 -23 20 -10 11 -16 20
-13 20 3 0 13 -9 23 -20z"/>
<path d="M1774 3121 c-23 -10 -54 -36 -70 -57 -25 -32 -29 -46 -29 -100 0 -70
17 -102 75 -141 43 -30 121 -31 168 -3 38 23 69 71 78 118 13 69 -37 161 -103
188 -43 19 -70 17 -119 -5z"/>
<path d="M3900 3118 c-45 -31 -70 -82 -70 -143 0 -59 22 -100 76 -141 74 -57
185 -29 230 58 38 73 8 185 -59 227 -48 30 -132 29 -177 -1z"/>
</g>
</svg>
