<?xml version="1.0" standalone="no"?>
<!DOCTYPE svg PUBLIC "-//W3C//DTD SVG 20010904//EN"
 "http://www.w3.org/TR/2001/REC-SVG-20010904/DTD/svg10.dtd">
<svg version="1.0" xmlns="http://www.w3.org/2000/svg"
 width="563.000000pt" height="553.000000pt" viewBox="0 0 563.000000 553.000000"
 preserveAspectRatio="xMidYMid meet">

<g transform="translate(0.000000,553.000000) scale(0.100000,-0.100000)"
fill="#000000" stroke="none">
<path d="M915 5524 c-11 -2 -45 -9 -75 -15 -119 -23 -285 -84 -274 -100 3 -5
-1 -6 -9 -3 -24 9 -189 -110 -272 -198 -120 -125 -201 -259 -256 -423 l-24
-70 -2 -1955 -3 -1954 25 -89 c31 -108 101 -251 117 -241 7 4 8 3 4 -4 -9 -15
42 -91 113 -167 115 -124 272 -225 434 -279 l77 -26 2065 0 2065 0 62 21 c300
101 529 315 642 601 l26 66 0 2057 0 2057 -27 66 c-56 141 -116 234 -220 343
-130 136 -297 234 -491 287 l-97 27 -1930 1 c-1062 1 -1939 0 -1950 -2z m355
-2028 c0 -2 -8 -10 -17 -17 -16 -13 -17 -12 -4 4 13 16 21 21 21 13z m620
-161 c124 -63 191 -174 194 -320 2 -134 -35 -216 -129 -287 -64 -48 -170 -83
-230 -75 -100 14 -207 92 -252 185 -25 52 -28 67 -28 167 0 126 15 172 81 244
102 113 244 147 364 86z m2288 5 c150 -76 224 -219 200 -392 -17 -122 -83
-219 -183 -268 -73 -35 -179 -35 -255 1 -93 44 -174 143 -195 239 -4 18 -7 66
-7 106 2 123 51 218 148 285 99 68 194 77 292 29z m539 -267 c-3 -10 -5 -2 -5
17 0 19 2 27 5 18 2 -10 2 -26 0 -35z m0 -150 c-3 -10 -5 -4 -5 12 0 17 2 24
5 18 2 -7 2 -21 0 -30z m-3700 -25 c-3 -7 -5 -2 -5 12 0 14 2 19 5 13 2 -7 2
-19 0 -25z m-216 -159 l-9 -44 -1 41 c-1 22 2 44 6 47 12 12 13 1 4 -44z
m2114 -239 c3 -5 1 -10 -4 -10 -6 0 -11 5 -11 10 0 6 2 10 4 10 3 0 8 -4 11
-10z m-685 -4 c0 -2 -8 -10 -17 -17 -16 -13 -17 -12 -4 4 13 16 21 21 21 13z
m797 -872 c-3 -3 -12 -4 -19 -1 -8 3 -5 6 6 6 11 1 17 -2 13 -5z"/>
<path d="M1774 3121 c-23 -10 -54 -36 -70 -57 -25 -32 -29 -46 -29 -100 0 -70
17 -102 75 -141 43 -30 121 -31 168 -3 38 23 69 71 78 118 13 69 -37 161 -103
188 -43 19 -70 17 -119 -5z"/>
<path d="M3900 3118 c-45 -31 -70 -82 -70 -143 0 -59 22 -100 76 -141 74 -57
185 -28 230 58 38 73 8 185 -59 227 -48 30 -132 29 -177 -1z"/>
</g>
</svg>
